<svg viewBox="0 0 590 110" fill="none" xmlns="http://www.w3.org/2000/svg">
<path d="M38.3906 68.2813C49.0857 67.5872 60.3841 68.9108 68.0767 72.9602C76.0378 77.1512 79.4303 83.8099 78.8788 90.2187C78.3586 96.2614 74.272 101.732 68.2798 103.4L67.9936 103.477C58.9188 105.796 49.4098 99.1706 48.3506 89.9192L48.3067 89.477L48.2949 89.288C48.2295 87.3428 49.7015 85.6666 51.6627 85.5007C53.6241 85.335 55.3559 86.7406 55.6178 88.6693L55.639 88.8575L55.6617 89.088C56.2223 93.9218 61.4352 97.5567 66.1713 96.3466L66.434 96.2737C69.1324 95.4566 71.2689 92.8202 71.5472 89.5875C71.8111 86.5209 70.3585 82.4771 64.6493 79.4715C58.6711 76.3246 48.9393 74.9709 38.8674 75.6246C28.7954 76.2785 19.3209 78.8786 13.7998 82.7719L13.6422 82.877C11.9968 83.9165 9.80684 83.4943 8.6724 81.8859C7.50167 80.2253 7.89888 77.9295 9.55925 76.7585L10.2367 76.2951C17.3529 71.5771 28.0299 68.9539 38.3906 68.2813Z" fill="currentColor"/>
<path d="M102.13 25.7788C111.941 26.1198 120.576 33.9608 120.418 44.2166L120.404 44.7145C120.166 50.278 118.051 55.1438 114.201 58.7205C110.387 62.2637 105.142 64.2929 99.0292 64.774C95.6786 65.0374 91.2183 64.1927 86.4754 63.2888C81.5083 62.3423 75.659 61.1935 68.8773 60.4778C55.587 59.0751 38.7295 59.3437 18.9138 66.3375L17.9674 66.6762C16.0571 67.3672 13.9473 66.3791 13.2556 64.4689C12.5641 62.5587 13.5529 60.4492 15.4629 59.7571L16.4681 59.3972C37.5405 51.9605 55.5384 51.6703 69.6497 53.1595C76.7855 53.9127 82.933 55.1232 87.8531 56.0608C92.9963 57.0409 96.3165 57.6054 98.4513 57.4377C103.308 57.0556 106.857 55.4995 109.193 53.3297C111.493 51.1929 112.889 48.2153 113.052 44.3993L113.06 44.1178C113.145 38.3224 108.167 33.3501 101.887 33.1331L101.581 33.126C95.7546 33.0686 91.2712 36.6979 90.1145 42.4092C89.7109 44.4005 87.7696 45.6878 85.7783 45.2846C83.7873 44.881 82.4991 42.9396 82.9021 40.9484C84.7593 31.7788 92.2999 25.6753 101.655 25.7678L102.13 25.7788Z" fill="currentColor"/>
<path d="M53.7837 21.9036C54.2834 13.0271 62.4815 5.85597 71.5135 7.15195L71.8452 7.20371C78.7837 8.36027 83.41 14.2188 84.0673 20.5887C84.7647 27.3486 81.0918 34.3934 72.4513 38.1318C57.9043 44.4256 54.0237 43.925 26.7582 50.3249L24.0451 50.9664L23.8593 51.0056C21.9457 51.3595 20.0692 50.1538 19.6133 48.2392C19.1575 46.3243 20.2895 44.4021 22.1577 43.8559L22.3404 43.8073L25.1366 43.1463C53.1925 36.5561 55.7438 37.3427 69.5297 31.3782C75.5127 28.7895 77.0841 24.6061 76.7475 21.3438C76.3925 17.9037 73.9897 15.0993 70.7812 14.4882L70.4683 14.4357C65.9085 13.7815 61.4024 17.5435 61.131 22.309L61.1208 22.5364L61.1114 22.7254C60.9578 24.6658 59.3066 26.1653 57.339 26.1097C55.3714 26.0536 53.8081 24.4628 53.7649 22.5168L53.7657 22.3279L53.7837 21.9036Z" fill="currentColor"/>
<path fill-rule="evenodd" clip-rule="evenodd" d="M233.686 40.3789C235.989 40.4263 238.148 40.8288 240.159 41.5898L240.557 41.7451C242.523 42.5358 244.245 43.5826 245.716 44.8886L246.136 45.2597C246.698 45.7719 247.212 46.3047 247.679 46.8574V44.9306C247.679 43.8539 248.032 42.9334 248.755 42.2109C249.478 41.4308 250.429 41.0509 251.559 41.0508C252.642 41.0508 253.56 41.4375 254.277 42.2109C255.051 42.9277 255.439 43.8468 255.439 44.9306V82.1943C255.439 83.2845 255.048 84.2291 254.278 84.999C253.561 85.7726 252.642 86.1591 251.559 86.1591C250.493 86.159 249.585 85.8206 248.879 85.1269L248.74 84.9834C248.032 84.2107 247.679 83.2709 247.679 82.1943V80.1631C247.018 80.9967 246.253 81.7991 245.384 82.5683L245.376 82.5761C243.867 83.853 242.075 84.9212 240.006 85.7832L239.999 85.7851C237.963 86.5994 235.759 87.0039 233.392 87.0039C229.471 87.0039 225.939 85.9936 222.812 83.9668L222.806 83.9629C219.69 81.8857 217.212 79.0886 215.373 75.583L215.37 75.5771C213.583 72.0613 212.696 68.066 212.696 63.6045C212.696 59.0881 213.582 55.0918 215.371 51.6299L215.373 51.6269L215.726 50.9785C217.526 47.7794 219.889 45.2522 222.816 43.4091C225.94 41.386 229.413 40.374 233.223 40.374L233.686 40.3789ZM234.152 47.6269C231.484 47.6269 229.1 48.3053 226.989 49.6572L226.99 49.6582C225.058 50.9293 223.502 52.6553 222.324 54.8486L222.094 55.2939C220.894 57.6929 220.287 60.459 220.287 63.6045C220.287 66.692 220.865 69.4612 222.011 71.9199C223.214 74.3258 224.85 76.229 226.914 77.6416C229.022 79.0455 231.43 79.7509 234.152 79.7509L234.659 79.7431C237.173 79.6604 239.384 78.9565 241.306 77.6416L241.311 77.6386L241.702 77.3681C243.632 75.9865 245.133 74.1744 246.207 71.9238L246.209 71.9199L246.428 71.455C247.485 69.1136 248.017 66.499 248.017 63.6045L248.01 63.04C247.939 60.2369 247.337 57.714 246.211 55.4629L246.205 55.4511C245.059 52.9956 243.43 51.0986 241.318 49.7451L241.312 49.7412L241.306 49.7373C239.384 48.4222 237.173 47.7176 234.659 47.6347L234.152 47.6269Z" fill="currentColor"/>
<path fill-rule="evenodd" clip-rule="evenodd" d="M380.116 40.374C382.771 40.374 385.34 40.8651 387.82 41.8457L388.283 42.0351C390.578 43.0101 392.62 44.3919 394.406 46.1767L394.761 46.5293C396.506 48.3116 397.916 50.4451 398.994 52.9238L399.204 53.416C400.224 55.8932 400.758 58.6408 400.812 61.6523V61.6611C400.812 62.6398 400.461 63.4858 399.777 64.1748L399.636 64.3105C398.869 65.013 397.96 65.372 396.932 65.372H366.742C366.936 67.8434 367.544 70.0478 368.561 71.9922C369.87 74.3892 371.664 76.2927 373.949 77.709C376.227 79.0648 378.898 79.7509 381.976 79.7509L382.687 79.7392C384.317 79.6852 385.742 79.4425 386.967 79.0185L387.493 78.8281C388.7 78.3716 389.752 77.8337 390.65 77.2187C391.695 76.4481 392.567 75.6834 393.271 74.9258L393.308 74.8857L393.353 74.8545C394.142 74.3081 394.944 74.0049 395.749 74.0049L395.929 74.0088C396.819 74.0475 397.575 74.3769 398.149 75.0156C398.793 75.6681 399.122 76.4639 399.122 77.3779C399.122 78.5063 398.586 79.4744 397.615 80.2744C395.989 82.0668 393.802 83.6424 391.071 85.0078L391.063 85.0117C388.291 86.34 385.344 87.0039 382.229 87.0039C377.936 87.0038 374.125 86.1482 370.81 84.4228L370.153 84.0654C366.697 82.1067 363.983 79.4244 362.022 76.0224L362.018 76.0136C360.113 72.5501 359.168 68.5775 359.168 64.1113C359.168 59.146 360.139 54.8891 362.104 51.3623L362.105 51.3593L362.489 50.7021C364.312 47.6792 366.582 45.3031 369.304 43.5879L369.895 43.2304C373.121 41.3296 376.531 40.374 380.116 40.374ZM379.506 47.7256C378.284 47.7816 377.061 48.0064 375.833 48.4004L375.219 48.6113L375.21 48.6142C373.753 49.1168 372.405 49.9511 371.168 51.1279L370.922 51.3681C369.685 52.6046 368.649 54.2293 367.824 56.2597L367.825 56.2607C367.558 56.9672 367.338 57.7279 367.163 58.542H392.714V58.3974C392.495 56.1849 391.742 54.315 390.463 52.7695L390.456 52.7627L390.451 52.7558C389.204 51.1287 387.661 49.8827 385.818 49.0156L385.813 49.0136C384.023 48.1457 382.126 47.7119 380.116 47.7119L379.506 47.7256Z" fill="currentColor"/>
<path fill-rule="evenodd" clip-rule="evenodd" d="M578.417 22.6299C579.5 22.6299 580.419 23.0165 581.136 23.79C581.91 24.5071 582.297 25.4263 582.297 26.5097V82.1943C582.297 83.2841 581.907 84.2289 581.137 84.999C580.42 85.7727 579.5 86.1591 578.417 86.1591C577.351 86.1591 576.444 85.8206 575.737 85.1269L575.599 84.9834C574.89 84.2107 574.537 83.2709 574.537 82.1943V79.9941C574 80.6712 573.396 81.3283 572.722 81.9629L572.242 82.3994C570.733 83.7348 568.939 84.832 566.868 85.6953L566.869 85.6963C564.958 86.5153 562.897 86.9481 560.692 86.999L560.25 87.0039C556.383 87.0039 552.853 85.9929 549.672 83.9687L549.669 83.9668C546.55 81.9451 544.071 79.1736 542.231 75.667L542.229 75.6611C540.554 72.3651 539.669 68.6483 539.565 64.5205L539.555 63.6894C539.555 59.1726 540.441 55.1494 542.229 51.6328L542.231 51.6269L542.584 50.9785C544.384 47.7795 546.747 45.2522 549.674 43.4091C552.798 41.3859 556.271 40.374 560.081 40.374L560.533 40.3789C562.788 40.4263 564.923 40.8293 566.933 41.5898L567.33 41.7451C569.297 42.5358 571.018 43.5826 572.489 44.8886L572.917 45.2656C573.506 45.8007 574.046 46.3586 574.537 46.9375V26.5097C574.537 25.433 574.891 24.5126 575.613 23.79C576.336 23.0099 577.287 22.6299 578.417 22.6299ZM561.011 47.6269C558.344 47.6269 555.963 48.3329 553.852 49.7402L553.849 49.7422C551.917 51.0134 550.36 52.74 549.182 54.9336L548.951 55.3789C547.752 57.7777 547.146 60.5439 547.146 63.6894L547.152 64.2539C547.223 67.0589 547.825 69.6107 548.951 71.916L549.182 72.3613C550.361 74.5599 551.92 76.3165 553.856 77.6416C555.966 79.0467 558.346 79.7509 561.011 79.7509L561.519 79.7431C564.036 79.6633 566.249 78.9856 568.172 77.7207C570.289 76.3083 571.92 74.4074 573.065 72.0078L573.067 72.0039L573.286 71.539C574.343 69.1977 574.875 66.5838 574.875 63.6894C574.875 60.5439 574.269 57.7777 573.069 55.3789L573.065 55.3711C571.92 52.9719 570.291 51.1004 568.177 49.7451L568.17 49.7412L568.164 49.7373C566.242 48.4222 564.031 47.7176 561.518 47.6347L561.011 47.6269Z" fill="currentColor"/>
<path d="M350.21 40.7129C351.17 40.717 352.016 41.0439 352.724 41.6875L352.855 41.8134C353.493 42.4521 353.817 43.2469 353.817 44.1699L353.805 44.4648C353.781 44.7477 353.723 45.0283 353.633 45.3066C353.571 45.607 353.478 45.8865 353.353 46.1425L353.354 46.1435L337.045 83.6611L337.044 83.6631C336.708 84.4266 336.258 85.0393 335.681 85.4687C335.099 85.9008 334.415 86.1272 333.649 86.1591L333.648 86.1572C332.83 86.2169 332.041 86.058 331.292 85.6836L331.269 85.6718L331.247 85.6582C330.53 85.2016 330.021 84.5243 329.706 83.6621L313.397 46.2295C313.281 45.9955 313.167 45.7363 313.054 45.4541L313.036 45.4121L313.027 45.3662C312.979 45.1236 312.951 44.8535 312.939 44.5586L312.934 44.2549C312.934 43.3806 313.274 42.5882 313.908 41.8906L313.91 41.8886L314.05 41.7441C314.765 41.0459 315.703 40.7129 316.813 40.7129L317.104 40.7236C317.776 40.7733 318.419 40.996 319.025 41.3818C319.733 41.776 320.249 42.3646 320.568 43.1289L333.604 73.7509L346.604 43.2129C346.94 42.3927 347.406 41.7442 348.023 41.3105C348.647 40.8724 349.386 40.6812 350.21 40.7129Z" fill="currentColor"/>
<path d="M198.992 26.0136C199.972 26.055 200.799 26.4045 201.427 27.0859L201.548 27.2138C202.135 27.8644 202.418 28.6843 202.418 29.6357V82.1103L202.413 82.33C202.369 83.4203 201.99 84.3504 201.258 85.083L201.25 85.0908L201.242 85.0976C200.518 85.7615 199.647 86.1138 198.654 86.1552L198.454 86.1591C197.89 86.1591 197.329 86.0649 196.774 85.8799L196.752 85.872L196.729 85.8623C196.171 85.6138 195.708 85.2908 195.366 84.8808L195.358 84.8711L195.352 84.8623L161.773 40.457V82.5322C161.773 83.4971 161.458 84.3392 160.828 85.0312L160.698 85.1679C160.023 85.8437 159.124 86.1591 158.062 86.1591C157.048 86.1591 156.182 85.8373 155.513 85.1679L155.504 85.1591L155.496 85.1504C154.843 84.4315 154.521 83.5476 154.521 82.5322V29.8896C154.521 28.7656 154.869 27.814 155.597 27.0859L155.604 27.0781L155.612 27.0713C156.379 26.3687 157.288 26.0097 158.316 26.0097C158.893 26.0097 159.462 26.1366 160.021 26.3818C160.648 26.5775 161.16 26.9095 161.512 27.4013L195.165 71.8994V29.6357C195.165 28.6211 195.487 27.7554 196.156 27.0859L196.293 26.956C196.985 26.3262 197.827 26.0097 198.792 26.0097L198.992 26.0136Z" fill="currentColor"/>
<path d="M274.852 30.2392C275.847 30.2847 276.697 30.6693 277.369 31.3945L277.5 31.5322C278.134 32.2329 278.444 33.1051 278.444 34.1142V41.7265H285.634C286.656 41.7265 287.521 42.082 288.185 42.8027L288.313 42.9375C288.938 43.6197 289.261 44.431 289.261 45.3525C289.261 46.3178 288.944 47.1597 288.314 47.8515L288.185 47.9883C287.515 48.6579 286.648 48.9795 285.634 48.9795H278.444V74.9277C278.444 76.2472 278.64 77.1553 278.968 77.7177L279.104 77.9336C279.423 78.4075 279.805 78.735 280.243 78.9394C280.865 79.1441 281.45 79.2441 282.001 79.2441L282.367 79.2295C282.657 79.2059 282.906 79.1546 283.118 79.0791L283.24 79.0302C283.761 78.7753 284.337 78.6523 284.958 78.6523C285.704 78.6523 286.336 79.0307 286.849 79.6611C287.455 80.2765 287.739 81.0821 287.739 82.0254C287.739 83.2736 286.997 84.2844 285.728 85.0703L285.721 85.0752L285.713 85.08C284.528 85.757 283.214 86.1133 281.782 86.1552L281.494 86.1591C280.684 86.1591 279.68 86.1018 278.488 85.9883L278.486 85.9873C277.434 85.8821 276.391 85.5708 275.357 85.0605L274.915 84.83C273.688 84.1551 272.669 83.0629 271.847 81.5937L271.841 81.584L271.836 81.5732C271.054 80.0102 270.685 77.894 270.685 75.2656V48.9795H265.776C264.855 48.9794 264.044 48.6569 263.361 48.0322L263.227 47.9033C262.555 47.2318 262.196 46.4087 262.154 45.4599L262.15 45.2685C262.15 44.284 262.519 43.4451 263.244 42.7861C263.95 42.0879 264.801 41.7266 265.776 41.7265H270.685V34.1142C270.685 33.0238 271.076 32.0989 271.86 31.3799C272.628 30.6197 273.567 30.2343 274.649 30.2343L274.852 30.2392Z" fill="currentColor"/>
<path d="M514.79 40.374C518.683 40.374 521.813 41.1749 524.124 42.834L524.544 43.1484C526.607 44.7517 528.078 46.8458 528.953 49.417C529.931 52.1248 530.416 55.1377 530.416 58.4502V82.1943C530.416 83.2845 530.025 84.2291 529.255 84.999C528.583 85.7238 527.734 86.1087 526.738 86.1543L526.536 86.1591C525.446 86.1591 524.502 85.7691 523.731 84.999L523.724 84.9912L523.717 84.9834C523.008 84.2105 522.656 83.2706 522.656 82.1943V58.6191C522.656 56.5312 522.326 54.6801 521.678 53.0586L521.674 53.0498L521.67 53.04C521.086 51.3942 520.083 50.1015 518.653 49.1484L518.645 49.1425L518.636 49.1357C517.286 48.1499 515.376 47.6269 512.847 47.6269C510.56 47.627 508.473 48.1436 506.579 49.1718L506.569 49.1767C504.668 50.1543 503.156 51.4801 502.022 53.1533L502.018 53.1601C500.896 54.7626 500.334 56.5772 500.334 58.6191V82.1943C500.334 83.2841 499.944 84.2289 499.174 84.999C498.502 85.7242 497.652 86.1088 496.656 86.1543L496.454 86.1591C495.364 86.1591 494.42 85.7687 493.65 84.999L493.643 84.9912L493.636 84.9834C492.928 84.2107 492.574 83.2709 492.574 82.1943V45.3525C492.574 44.2758 492.928 43.3562 493.65 42.6338L493.797 42.4941C494.539 41.8168 495.432 41.4726 496.454 41.4726L496.665 41.4775C497.703 41.5225 498.58 41.9029 499.258 42.6338L499.389 42.7715C500.023 43.4717 500.334 44.3431 500.334 45.3525V47.6211C501.253 46.424 502.335 45.338 503.583 44.3672L504.177 43.9228C505.582 42.9161 507.121 42.1096 508.789 41.5029C510.703 40.7505 512.705 40.374 514.79 40.374Z" fill="currentColor"/>
<path d="M301.287 40.7959C302.37 40.7959 303.289 41.1827 304.006 41.956C304.78 42.6731 305.167 43.5924 305.167 44.6758V82.1933C305.167 83.2831 304.777 84.2279 304.007 84.998C303.29 85.7717 302.37 86.1582 301.287 86.1582C300.221 86.1581 299.314 85.8196 298.607 85.1259L298.469 84.9824C297.761 84.2098 297.407 83.27 297.407 82.1933V44.6758C297.407 43.5991 297.761 42.6786 298.483 41.956L298.63 41.8164C299.372 41.1392 300.265 40.7959 301.287 40.7959Z" fill="currentColor"/>
<path d="M477.553 40.7959C478.636 40.7959 479.555 41.1827 480.271 41.956C481.046 42.6731 481.433 43.5924 481.433 44.6758V82.1933C481.433 83.2831 481.043 84.2279 480.272 84.998C479.556 85.7717 478.636 86.1582 477.553 86.1582C476.487 86.1581 475.58 85.8196 474.873 85.1259L474.734 84.9824C474.026 84.2098 473.673 83.27 473.673 82.1933V44.6758C473.673 43.5991 474.026 42.6786 474.749 41.956L474.896 41.8164C475.638 41.1392 476.531 40.7959 477.553 40.7959Z" fill="currentColor"/>
<path d="M458.662 43.2597C459.335 41.4039 461.385 40.4442 463.241 41.1162C465.097 41.7889 466.057 43.8391 465.385 45.6953L451.841 83.0625C450.346 87.1861 444.507 87.0252 443.19 82.9228L443.131 82.7246L436.249 57.875L429.367 82.7246C428.196 86.9516 422.362 87.2437 420.731 83.2558L420.657 83.0625L407.113 45.6953L407.056 45.5215C406.502 43.7131 407.459 41.7683 409.257 41.1162C411.055 40.4648 413.035 41.3449 413.769 43.0879L413.836 43.2597L424.629 73.041L432.771 43.6416C433.054 42.4709 433.922 41.4777 435.136 41.081C435.187 41.0642 435.239 41.0477 435.291 41.0332L435.294 41.0322C435.301 41.0302 435.309 41.0292 435.316 41.0273C435.365 41.0142 435.414 41.0013 435.463 40.9902C435.479 40.9866 435.496 40.9829 435.512 40.9795C435.554 40.9705 435.597 40.9625 435.64 40.955C435.657 40.952 435.675 40.9499 435.692 40.9472C435.734 40.9406 435.776 40.9338 435.818 40.9287C435.832 40.927 435.846 40.9262 435.859 40.9248C435.905 40.9197 435.952 40.9144 435.998 40.9111C436.011 40.9102 436.026 40.9099 436.039 40.9091C436.081 40.9067 436.124 40.9043 436.166 40.9033H436.331C436.373 40.9043 436.416 40.9067 436.458 40.9091C436.471 40.9099 436.486 40.9102 436.499 40.9111C436.545 40.9144 436.592 40.9197 436.638 40.9248C436.651 40.9262 436.665 40.9271 436.679 40.9287C436.721 40.9338 436.763 40.9406 436.805 40.9472C436.822 40.95 436.84 40.9521 436.857 40.955C436.9 40.9624 436.943 40.9705 436.985 40.9795C437.001 40.9828 437.018 40.9866 437.034 40.9902C437.083 41.0013 437.132 41.0142 437.181 41.0273C437.188 41.0293 437.197 41.0302 437.204 41.0322L437.206 41.0332C437.258 41.0478 437.311 41.0641 437.362 41.081C438.576 41.4775 439.443 42.4708 439.726 43.6416L447.868 73.041L458.662 43.2597Z" fill="currentColor"/>
<path d="M301.287 26.9814C303.827 26.9814 305.886 29.0403 305.886 31.58C305.886 34.1198 303.827 36.1787 301.287 36.1787C298.747 36.1787 296.688 34.1198 296.688 31.58C296.688 29.0403 298.747 26.9814 301.287 26.9814Z" fill="currentColor"/>
<path d="M477.553 26.9814C480.092 26.9814 482.151 29.0403 482.151 31.58C482.151 34.1198 480.092 36.1787 477.553 36.1787C475.013 36.1787 472.954 34.1198 472.954 31.58C472.954 29.0403 475.013 26.9814 477.553 26.9814Z" fill="currentColor"/>
</svg>
